<svg id="ic_방문_상담_32px" data-name="ic_방문 상담_32px" xmlns="http://www.w3.org/2000/svg" width="32" height="32" viewBox="0 0 32 32">
  <rect id="사각형_1726" data-name="사각형 1726" width="32" height="32" fill="#f2f2f2" opacity="0"/>
  <g id="그룹_2738" data-name="그룹 2738" transform="translate(4 1)">
    <path id="패스_1387" data-name="패스 1387" d="M-124.23,1A12.441,12.441,0,0,0-136.5,13.648C-136.5,24.989-124.166,31-124.166,31s12.33-5.417,12.33-17.352A12.589,12.589,0,0,0-124.23,1Z" transform="translate(136.497 -1)" fill="none" stroke="#000" stroke-miterlimit="10" stroke-width="1.5"/>
    <path id="패스_1388" data-name="패스 1388" d="M-124.23,8.467a4.463,4.463,0,0,0-4.385,4.512,4.463,4.463,0,0,0,4.385,4.513,4.464,4.464,0,0,0,4.386-4.513A4.346,4.346,0,0,0-124.23,8.467Z" transform="translate(136.497 -1)" fill="none" stroke="#000" stroke-miterlimit="10" stroke-width="1.5"/>
  </g>
</svg>
