<svg xmlns="http://www.w3.org/2000/svg" width="33.5" height="33.5" viewBox="0 0 33.5 33.5">
  <g id="ic_국제보증_32px" transform="translate(0.75 0.75)">
    <rect id="사각형_1717" data-name="사각형 1717" width="32" height="32" fill="#f2f2f2" stroke="#707070" stroke-width="1.5" opacity="0"/>
    <g id="그룹_2714" data-name="그룹 2714" transform="translate(1 1)">
      <path id="패스_1362" data-name="패스 1362" d="M-109.121,156a14.815,14.815,0,0,1-3.444,9.522A14.844,14.844,0,0,1-124,170.879a14.844,14.844,0,0,1-11.435-5.357A14.815,14.815,0,0,1-138.879,156a14.815,14.815,0,0,1,3.444-9.522A14.844,14.844,0,0,1-124,141.121a14.844,14.844,0,0,1,11.435,5.357A14.815,14.815,0,0,1-109.121,156Z" transform="translate(138.879 -141.121)" fill="none" stroke="#000" stroke-miterlimit="10" stroke-width="1.5"/>
      <path id="패스_1363" data-name="패스 1363" d="M-138.879,156h29.758" transform="translate(138.879 -141.121)" fill="none" stroke="#000" stroke-miterlimit="10" stroke-width="1.5"/>
      <path id="패스_1364" data-name="패스 1364" d="M-124,141.121v29.758" transform="translate(138.879 -141.121)" fill="none" stroke="#000" stroke-miterlimit="10" stroke-width="1.5"/>
      <path id="패스_1365" data-name="패스 1365" d="M-124,141.186c-4.7.695-8.376,7.06-8.376,14.814s3.679,14.118,8.376,14.813c4.7-.7,8.376-7.06,8.376-14.813S-119.3,141.881-124,141.186Z" transform="translate(138.879 -141.121)" fill="none" stroke="#000" stroke-miterlimit="10" stroke-width="1.5"/>
      <path id="패스_1366" data-name="패스 1366" d="M-112.565,146.478a15.242,15.242,0,0,1-4.234,2.252,21.768,21.768,0,0,1-7.2,1.185,21.764,21.764,0,0,1-7.2-1.185,15.242,15.242,0,0,1-4.234-2.252" transform="translate(138.879 -141.121)" fill="none" stroke="#000" stroke-miterlimit="10" stroke-width="1.5"/>
      <path id="패스_1367" data-name="패스 1367" d="M-135.435,165.522a15.242,15.242,0,0,1,4.234-2.252,21.764,21.764,0,0,1,7.2-1.185,21.768,21.768,0,0,1,7.2,1.185,15.242,15.242,0,0,1,4.234,2.252" transform="translate(138.879 -141.121)" fill="none" stroke="#000" stroke-miterlimit="10" stroke-width="1.5"/>
    </g>
  </g>
</svg>
