<svg id="ic_전화_상담_32px" data-name="ic_전화 상담_32px" xmlns="http://www.w3.org/2000/svg" width="32" height="32" viewBox="0 0 32 32">
  <rect id="사각형_1725" data-name="사각형 1725" width="32" height="32" fill="#f2f2f2" opacity="0"/>
  <g id="그룹_2737" data-name="그룹 2737" transform="translate(3 3)">
    <g id="그룹_2736" data-name="그룹 2736">
      <path id="패스_1386" data-name="패스 1386" d="M168.326,301.833a19.033,19.033,0,0,1-7.279-1.847l-2.377,2.378q-.252-.137-.5-.28a22.446,22.446,0,0,1-8.229-8.21q-.156-.27-.3-.543l2.379-2.379a19.052,19.052,0,0,1-1.848-7.278,1.011,1.011,0,0,0-1-.978h-2.52s-4.018,3.307-3.948,3.949A25.557,25.557,0,0,0,165.355,309.3c.643.069,3.949-3.949,3.949-3.949v-2.519A1.011,1.011,0,0,0,168.326,301.833Z" transform="translate(-142.696 -282.696)" fill="none" stroke="#000" stroke-linecap="round" stroke-linejoin="round" stroke-width="1.5"/>
    </g>
  </g>
</svg>
