<svg id="ic_워런티_32px" xmlns="http://www.w3.org/2000/svg" width="32" height="32" viewBox="0 0 32 32">
  <rect id="사각형_1707" data-name="사각형 1707" width="32" height="32" fill="#f2f2f2" opacity="0"/>
  <g id="그룹_2700" data-name="그룹 2700" transform="translate(1 3)">
    <path id="패스_1342" data-name="패스 1342" d="M13.213,22.5,19,25h9.5A2.507,2.507,0,0,0,31,22.5V5a2.507,2.507,0,0,0-2.5-2.5H3.5A2.507,2.507,0,0,0,1,5V22.5A2.507,2.507,0,0,0,3.5,25H13m5.788-2.5" transform="translate(-1 -2.5)" fill="none" stroke="#000" stroke-miterlimit="10" stroke-width="1.5"/>
    <path id="패스_1343" data-name="패스 1343" d="M11.783,21.881H5.755a1.154,1.154,0,0,1-1.138-1.162V6.781A1.154,1.154,0,0,1,5.755,5.619h20.49a1.154,1.154,0,0,1,1.138,1.162V20.719a1.154,1.154,0,0,1-1.138,1.162H20.5" transform="translate(-1 -2.5)" fill="none" stroke="#000" stroke-miterlimit="10" stroke-width="1.5"/>
    <path id="패스_1344" data-name="패스 1344" d="M20.5,20.75a4.448,4.448,0,0,1-1.155,3,2.5,2.5,0,0,1-.345.345,4.474,4.474,0,0,1-6,0,2.556,2.556,0,0,1-.345-.345,4.448,4.448,0,0,1-1.155-3,4.5,4.5,0,0,1,9,0Z" transform="translate(-1 -2.5)" fill="none" stroke="#000" stroke-miterlimit="10" stroke-width="1.5"/>
    <path id="패스_1345" data-name="패스 1345" d="M19,24.184V29.5L16,27l-3,2.5V24.184" transform="translate(-1 -2.5)" fill="none" stroke="#000" stroke-miterlimit="10" stroke-width="1.5"/>
  </g>
</svg>
