<svg xmlns="http://www.w3.org/2000/svg" width="31.5" height="31.5" viewBox="0 0 31.5 31.5">
  <g id="ic_삼성멤버스커뮤니티_32px" transform="translate(0.75 0.75)">
    <g id="그룹_2729" data-name="그룹 2729">
      <rect id="사각형_1774" data-name="사각형 1774" width="30" height="30" rx="10.141" fill="none" stroke="#000" stroke-miterlimit="10" stroke-width="1.5"/>
      <g id="그룹_2728" data-name="그룹 2728" transform="translate(7.292 7.866)">
        <path id="패스_1374" data-name="패스 1374" d="M292.792,156.576v4.308a2.25,2.25,0,0,1-4.5,0v-9.75a2.253,2.253,0,0,1,3.99-1.432l-.15-.15a2.25,2.25,0,0,0-3.18,3.184Z" transform="translate(-288.292 -148.866)" fill="none" stroke="#000" stroke-miterlimit="10" stroke-width="1.5"/>
        <path id="패스_1375" data-name="패스 1375" d="M303.708,151.116v9.75a2.25,2.25,0,1,1-4.5,0v-9.75a2.243,2.243,0,0,1,1.86-2.213,1.9,1.9,0,0,1,.39-.037A2.247,2.247,0,0,1,303.708,151.116Z" transform="translate(-288.292 -148.866)" fill="none" stroke="#000" stroke-miterlimit="10" stroke-width="1.5"/>
        <path id="패스_1376" data-name="패스 1376" d="M301.068,148.9a2.243,2.243,0,0,0-1.86,2.213v5.25l-1.721,1.721a2.255,2.255,0,0,1-3.184,0l-1.511-1.511-3.84-3.84a2.25,2.25,0,0,1,3.18-3.184l.15.15,3.615,3.615,3.761-3.765A2.219,2.219,0,0,1,301.068,148.9Z" transform="translate(-288.292 -148.866)" fill="none" stroke="#000" stroke-miterlimit="10" stroke-width="1.5"/>
      </g>
    </g>
  </g>
</svg>
