<?xml version="1.0" encoding="UTF-8" standalone="no"?>
<!DOCTYPE svg PUBLIC "-//W3C//DTD SVG 1.1//EN" "http://www.w3.org/Graphics/SVG/1.1/DTD/svg11.dtd">
<svg xmlns="http://www.w3.org/2000/svg" xmlns:xlink="http://www.w3.org/1999/xlink" viewBox="0 0 454.054054054054 800">
  <title>Export to SVG</title>
  <desc>Generated by CADtoSVG Version 1.0: 04-05-2021 10:48:27</desc>
<polyline points="47.28,405.4 47.3,406.06 47.34,406.72 47.4,407.38 47.49,408.05 47.61,408.72 47.75,409.39 47.91,410.06 48.1,410.72 48.31,411.39 48.54,412.05 48.8,412.71 49.07,413.37 49.36,414.01 49.68,414.65 50.01,415.28 50.36,415.9 50.73,416.51 51.12,417.1 51.53,417.69 51.95,418.25 52.38,418.81 52.84,419.34 53.3,419.86 53.78,420.35 356.65,723.23 357.15,723.71 357.67,724.18 358.2,724.63 358.75,725.07 359.32,725.49 359.9,725.89 360.5,726.28 361.11,726.65 361.73,727 362.36,727.33 362.99,727.65 363.64,727.94 364.29,728.22 364.95,728.47 365.62,728.7 366.28,728.91 366.95,729.1 367.62,729.26 368.29,729.4 368.96,729.52 369.63,729.61 370.29,729.68 370.95,729.72 371.6,729.73 372.26,729.72 372.91,729.68 373.58,729.61 374.24,729.52 374.91,729.4 375.58,729.26 376.25,729.1 376.92,728.91 377.59,728.7 378.25,728.47 378.91,728.22 379.56,727.94 380.21,727.65 380.85,727.33 381.48,727 382.1,726.65 382.71,726.28 383.3,725.89 383.88,725.49 384.45,725.07 385,724.63 385.54,724.18 386.05,723.71 386.55,723.23 419.05,690.73 419.53,690.23 419.99,689.72 420.45,689.18 420.88,688.63 421.3,688.06 421.71,687.48 422.1,686.89 422.47,686.28 422.82,685.66 423.15,685.03 423.47,684.39 423.76,683.75 424.03,683.09 424.29,682.43 424.52,681.77 424.73,681.1 424.92,680.43 425.08,679.76 425.22,679.09 425.34,678.43 425.43,677.76 425.49,677.1 425.53,676.44 425.55,675.78 425.53,675.13 425.49,674.47 425.43,673.81 425.34,673.14 425.22,672.47 425.08,671.8 424.92,671.13 424.73,670.46 424.52,669.8 424.29,669.13 424.03,668.47 423.76,667.82 423.47,667.18 423.15,666.54 422.82,665.91 422.47,665.29 422.1,664.68 421.71,664.08 421.3,663.5 420.88,662.93 420.45,662.38 419.99,661.85 419.53,661.33 419.05,660.83 163.62,405.4 419.05,149.98 419.53,149.48 419.99,148.96 420.45,148.43 420.88,147.88 421.3,147.31 421.71,146.73 422.1,146.13 422.47,145.52 422.82,144.9 423.15,144.27 423.47,143.63 423.76,142.99 424.03,142.34 424.29,141.68 424.52,141.01 424.73,140.35 424.92,139.68 425.08,139.01 425.22,138.34 425.34,137.67 425.43,137 425.49,136.34 425.53,135.68 425.55,135.03 425.53,134.3 425.49,133.58 425.43,132.86 425.34,132.16 425.22,131.46 425.08,130.77 424.92,130.09 424.73,129.42 424.52,128.75 424.29,128.1 424.03,127.46 423.76,126.82 423.47,126.2 423.15,125.58 422.82,124.98 422.47,124.39 422.1,123.81 421.71,123.24 421.3,122.68 420.88,122.13 420.45,121.6 419.99,121.08 419.53,120.57 419.05,120.08 386.55,87.58 386.05,87.1 385.54,86.63 385,86.18 384.45,85.74 383.88,85.32 383.3,84.92 382.71,84.53 382.1,84.16 381.48,83.81 380.85,83.48 380.21,83.16 379.56,82.87 378.91,82.59 378.25,82.34 377.59,82.11 376.92,81.9 376.25,81.71 375.58,81.55 374.91,81.41 374.24,81.29 373.58,81.2 372.91,81.13 372.26,81.09 371.6,81.08 370.95,81.09 370.29,81.13 369.63,81.2 368.96,81.29 368.29,81.41 367.62,81.55 366.95,81.71 366.28,81.9 365.62,82.11 364.95,82.34 364.29,82.59 363.64,82.87 362.99,83.16 362.36,83.48 361.73,83.81 361.11,84.16 360.5,84.53 359.9,84.92 359.32,85.32 358.75,85.74 358.2,86.18 357.67,86.63 357.15,87.1 356.65,87.58 53.78,390.46 53.3,390.95 52.84,391.47 52.38,392 51.95,392.56 51.53,393.12 51.12,393.71 50.73,394.3 50.36,394.91 50.01,395.53 49.68,396.16 49.36,396.8 49.07,397.44 48.8,398.1 48.54,398.76 48.31,399.42 48.1,400.09 47.91,400.75 47.75,401.42 47.61,402.09 47.49,402.76 47.4,403.43 47.34,404.09 47.3,404.75 47.28,405.4 47.28,405.4 " style="stroke:none; fill:#636363;"/>
</svg>
