<svg xmlns="http://www.w3.org/2000/svg" width="40" height="40" viewBox="0 0 40 40">
  <g id="ic_reading" transform="translate(-1297 -231)">
    <g id="사각형_924" data-name="사각형 924" transform="translate(1297 231)" fill="#fff" stroke="#707070" stroke-width="1" opacity="0">
      <rect width="40" height="40" stroke="none"/>
      <rect x="0.5" y="0.5" width="39" height="39" fill="none"/>
    </g>
    <g id="그룹_2311" data-name="그룹 2311" transform="translate(653 -22)">
      <path id="패스_685" data-name="패스 685" d="M674.714,261.353V255h-22.5A3.2,3.2,0,0,0,649,258.176h0a3.2,3.2,0,0,0,3.214,3.177Z" fill="none" stroke="#000" stroke-linecap="round" stroke-linejoin="round" stroke-width="2"/>
      <path id="패스_686" data-name="패스 686" d="M649,258.176a3.2,3.2,0,0,0,3.214,3.177H679V291H652.214A3.2,3.2,0,0,1,649,287.824Z" fill="none" stroke="#000" stroke-linecap="round" stroke-linejoin="round" stroke-width="2"/>
      <path id="패스_687" data-name="패스 687" d="M655.529,261.353v12.706l4.235-3.176L664,274.059V261.353Z" fill="none" stroke="#000" stroke-linecap="round" stroke-linejoin="round" stroke-width="2"/>
    </g>
  </g>
</svg>
