<svg xmlns="http://www.w3.org/2000/svg" width="60" height="60" viewBox="0 0 60 60">
  <g id="그룹_4962" data-name="그룹 4962" transform="translate(-1225 -1049)">
    <rect id="사각형_1847" data-name="사각형 1847" width="60" height="60" transform="translate(1225 1049)" fill="none"/>
    <g id="그룹_4954" data-name="그룹 4954" transform="translate(-70.341 1570.356)">
      <path id="패스_732" data-name="패스 732" d="M1350.349-511.817a15.13,15.13,0,0,0-10.833-4.539,15.119,15.119,0,0,0-10.82,4.527l-3.11,3.028-3.1-3.016a15.13,15.13,0,0,0-10.833-4.539,15.132,15.132,0,0,0-10.833,4.539,15.52,15.52,0,0,0-4.386,12.674.9.9,0,0,0,.993.8.9.9,0,0,0,.8-.993,13.725,13.725,0,0,1,3.878-11.211,13.34,13.34,0,0,1,9.552-4,13.354,13.354,0,0,1,9.565,4.016l3.737,3.639a.9.9,0,0,0,1.256,0l3.75-3.651a13.342,13.342,0,0,1,9.552-4,13.344,13.344,0,0,1,9.553,4,13.82,13.82,0,0,1,0,19.36l-23.483,23.759-19.745-19.978a.9.9,0,0,0-1.273-.007.9.9,0,0,0-.008,1.272l20.386,20.625a.9.9,0,0,0,.64.268.9.9,0,0,0,.64-.268l24.123-24.406A15.625,15.625,0,0,0,1350.349-511.817Z"/>
      <path id="패스_733" data-name="패스 733" d="M1310.972-493.462l1.787-2.085,4.811,10.424a.881.881,0,0,0,.856.522.9.9,0,0,0,.808-.593l4.948-13.7,5.5,17.271a.9.9,0,0,0,.736.618.831.831,0,0,0,.121.009.9.9,0,0,0,.754-.409l6.749-10.348a.9.9,0,0,0-.262-1.245.9.9,0,0,0-1.245.262l-5.713,8.76-5.724-17.989a.9.9,0,0,0-.84-.627.9.9,0,0,0-.864.594l-5.1,14.135-4.48-9.707a.9.9,0,0,0-.694-.515.9.9,0,0,0-.807.306l-2.43,2.835h-9.034a.9.9,0,0,0-.9.9.9.9,0,0,0,.9.9h9.448A.9.9,0,0,0,1310.972-493.462Z"/>
    </g>
  </g>
</svg>
