<?xml version="1.0" ?><!DOCTYPE svg  PUBLIC '-//W3C//DTD SVG 1.1//EN'  'http://www.w3.org/Graphics/SVG/1.1/DTD/svg11.dtd'><svg enable-background="new 0 0 144.083 144" height="144px" id="Kakao" version="1.1" viewBox="0 0 144.083 144" width="144.083px" xml:space="preserve" xmlns="http://www.w3.org/2000/svg" xmlns:xlink="http://www.w3.org/1999/xlink"><path d="M72.04,132.834c-33.543,0-60.833-27.29-60.833-60.834s27.29-60.834,60.833-60.834c33.544,0,60.835,27.29,60.835,60.834  S105.584,132.834,72.04,132.834z M72.04,17.166c-30.235,0-54.833,24.599-54.833,54.834s24.598,54.834,54.833,54.834  c30.237,0,54.835-24.599,54.835-54.834S102.277,17.166,72.04,17.166z"/><path d="M83.581,38.123H60c-3.294,0-5.965,2.671-5.965,5.966V68.05c0,3.295,2.671,5.966,5.965,5.966h10.585  c-0.213,3.467-1.726,11.293-10.462,17.883c0,0-1.666,1.189-0.43,2.805c1.238,1.619,9.75,10.797,9.75,10.797s0.919,0.982,2.665-0.223  c1.839-1.268,16.361-10.844,17.437-37.228V44.089C89.545,40.794,86.875,38.123,83.581,38.123z"/></svg>